<svg width="52" height="53" viewBox="0 0 52 53" fill="none" xmlns="http://www.w3.org/2000/svg">
<path d="M26.0092 0.567383C15.606 0.565866 6.20371 6.76827 2.10903 16.3338L1.78496 16.4412L1.9106 16.8182C-3.48068 30.1179 2.92796 45.2708 16.2248 50.6632C19.3304 51.9227 22.6503 52.5692 26.0015 52.5674C40.3579 52.5695 51.9978 40.9306 52 26.5713C52.0022 12.2119 40.3657 0.569441 26.0092 0.567383ZM46.399 39.6761L45.0642 38.3419V35.234C45.0657 35.0999 45.036 34.9673 44.9776 34.8466L41.5983 28.0962V24.834C41.5983 24.5444 41.4537 24.2737 41.2127 24.113L38.6132 22.3796C38.4095 22.2436 38.1577 22.2001 37.92 22.26L34.7366 23.0556L29.3895 20.7607L28.6538 15.6058L30.6927 13.5674H35.0693L36.5423 15.7817C36.6753 15.9808 36.8849 16.1161 37.1211 16.1552L42.32 17.0219C42.4593 17.0453 42.6021 17.0339 42.736 16.989L47.5242 15.3926C51.5402 23.101 51.1107 32.3723 46.399 39.6761ZM42.8252 9.10752L41.4163 10.047L37.4885 9.26092L34.9402 8.41245C34.7842 8.35947 34.6163 8.35276 34.4567 8.39338L31.2351 9.19852L29.8227 8.72792L30.8694 6.63405H33.7999C33.9343 6.63416 34.0669 6.60307 34.1872 6.54305L37.1852 5.04372C39.2499 6.12163 41.1492 7.4901 42.8252 9.10752ZM16.5109 4.23598L18.5905 5.62265C18.6927 5.69068 18.8082 5.73618 18.9293 5.75612L23.1282 6.45638L22.7184 7.68272L20.5305 8.41332C20.3346 8.47853 20.1683 8.61157 20.0618 8.78858L17.5732 12.9364L13.5761 15.3354L7.684 16.1769C7.25693 16.2373 6.93936 16.6027 6.93882 17.034V19.634C6.93882 19.8639 7.03023 20.0843 7.1927 20.2468L8.67179 21.7262V23.2151L5.06721 20.811L3.75968 16.8876C6.24736 11.2022 10.8069 6.67825 16.5109 4.23598ZM14.044 32.6514L10.1275 31.867L8.67179 28.9628V26.9262L11.9003 23.697L13.0952 26.0881C13.242 26.3819 13.5423 26.5675 13.8707 26.5674H19.4457L21.793 30.4804C21.9496 30.7411 22.2314 30.9006 22.5356 30.9007H24.9444L24.3379 33.9401L21.0573 37.2213C20.8946 37.3837 20.8029 37.6041 20.8026 37.834V40.0007L17.6832 42.3407C17.4651 42.5044 17.3367 42.7613 17.3367 43.034V46.1644L16.2587 45.8074L14.7372 42.001V33.5007C14.7373 33.0888 14.4475 32.7337 14.044 32.6514ZM11.4393 45.9743C3.26958 39.8438 -0.18543 29.2514 2.79788 19.4815L3.51793 21.6412C3.57859 21.824 3.69838 21.9814 3.85846 22.0884L8.17789 24.9684L7.1927 25.9546C7.03023 26.1171 6.93882 26.3375 6.93882 26.5674V29.1674C6.93871 29.3018 6.9698 29.4344 7.0298 29.5548L8.76277 33.0215C8.88278 33.2609 9.10666 33.4314 9.36931 33.4834L13.0086 34.2105V42.1674C13.0084 42.2774 13.0294 42.3867 13.0701 42.4889L14.803 46.8223C14.8979 47.059 15.0922 47.2419 15.3342 47.3223L17.9337 48.189C18.0205 48.2184 18.1115 48.2336 18.2031 48.234C18.6817 48.234 19.0696 47.846 19.0696 47.3674V43.4674L22.189 41.1274C22.4071 40.9637 22.5356 40.7068 22.5356 40.434V38.1928L25.7476 34.9801C25.8684 34.8591 25.9507 34.7049 25.9842 34.5373L26.8507 30.2039C26.9445 29.7345 26.6401 29.278 26.1708 29.1842C26.115 29.173 26.0584 29.1674 26.0015 29.1674H23.026L20.6787 25.2544C20.5221 24.9936 20.2402 24.8342 19.9361 24.834H14.4062L12.9176 21.8466C12.7929 21.5973 12.5559 21.4231 12.2807 21.3786C12.0056 21.3311 11.7247 21.4219 11.5295 21.6213L10.4048 22.7419V21.3674C10.4048 21.1375 10.3133 20.9171 10.1509 20.7546L8.67179 19.2752V17.7854L13.9937 17.0254C14.108 17.0088 14.218 16.9696 14.3169 16.9101L18.6494 14.3101C18.7709 14.2371 18.8727 14.1353 18.9457 14.0137L21.3805 9.95512L23.6759 9.18898C23.9351 9.10394 24.1385 8.9006 24.2235 8.64125L25.09 6.04125C25.2401 5.58679 24.9935 5.09658 24.5391 4.94643C24.4972 4.93257 24.4542 4.92195 24.4106 4.91458L19.3954 4.07825L18.5142 3.49065C23.9669 1.7155 29.8726 1.9352 35.1785 4.11032L33.5954 4.90072H30.3339C30.0039 4.89887 29.7016 5.08477 29.5541 5.37998L27.8211 8.84665C27.6077 9.275 27.7817 9.79543 28.21 10.009C28.2465 10.0272 28.2842 10.0428 28.3228 10.0556L30.9223 10.9223C31.0783 10.9753 31.2461 10.982 31.4058 10.9414L34.6274 10.1362L36.9877 10.9223C37.0215 10.9344 37.0563 10.9438 37.0917 10.95L41.4241 11.8167C41.6494 11.8626 41.8838 11.8165 42.0748 11.6884L44.047 10.3728C45.0175 11.4541 45.8898 12.6198 46.6533 13.856L42.3902 15.2773L37.7745 14.5077L36.2494 12.2197C36.0896 11.98 35.821 11.8355 35.5329 11.834H30.3339C30.1041 11.834 29.8838 11.9255 29.7213 12.088L27.1219 14.688C26.9289 14.8809 26.838 15.1536 26.8767 15.4238L27.7432 21.4904C27.7868 21.7904 27.9839 22.0458 28.263 22.1638L34.3284 24.7638C34.5022 24.8391 34.6961 24.8546 34.8795 24.808L37.9738 24.0341L39.8653 25.2977V28.3007C39.8638 28.4348 39.8935 28.5674 39.9519 28.6881L43.3312 35.4386V38.7007C43.3312 38.9306 43.4226 39.1509 43.5851 39.3134L45.3978 41.1274C37.3587 51.8451 22.1549 54.0153 11.4393 45.9743Z" fill="black"/>
</svg>
