<svg width="17" height="17" viewBox="0 0 17 17" fill="none" xmlns="http://www.w3.org/2000/svg">
<path d="M16.8155 15.9252L12.245 11.3546C13.2471 10.1531 13.8518 8.60922 13.8518 6.92591C13.8518 3.1069 10.7449 0 6.92591 0C3.1069 0 0 3.1069 0 6.92591C0 10.7449 3.1069 13.8518 6.92591 13.8518C8.60922 13.8518 10.1531 13.2471 11.3546 12.245L15.9252 16.8156C16.0481 16.9386 16.2093 17.0001 16.3703 17.0001C16.5314 17.0001 16.6925 16.9386 16.8155 16.8156C17.0615 16.5696 17.0615 16.1711 16.8155 15.9252ZM1.25926 6.92591C1.25926 3.80138 3.80107 1.25926 6.92591 1.25926C10.0508 1.25926 12.5926 3.80138 12.5926 6.92591C12.5926 10.0504 10.0508 12.5926 6.92591 12.5926C3.80107 12.5926 1.25926 10.0504 1.25926 6.92591Z" fill="#292D32"/>
</svg>
