<svg width="14" height="14" viewBox="0 0 14 14" fill="none" xmlns="http://www.w3.org/2000/svg">
<path d="M10.5 0H3.5C1.57517 0 0 1.57517 0 3.5V10.5003C0 12.4247 1.57517 14.0003 3.5 14.0003H10.5C12.4248 14.0003 14 12.4247 14 10.5003V3.5C14 1.57517 12.4248 0 10.5 0ZM12.8333 10.5003C12.8333 11.7866 11.787 12.8336 10.5 12.8336H3.5C2.21358 12.8336 1.16672 11.7866 1.16672 10.5003V3.5C1.16672 2.21341 2.21358 1.16672 3.5 1.16672H10.5C11.787 1.16672 12.8333 2.21341 12.8333 3.5V10.5003Z" fill="#79A206"/>
<path d="M10.792 4.0835C11.2752 4.0835 11.667 3.69175 11.667 3.2085C11.667 2.72525 11.2752 2.3335 10.792 2.3335C10.3087 2.3335 9.91699 2.72525 9.91699 3.2085C9.91699 3.69175 10.3087 4.0835 10.792 4.0835Z" fill="#79A206"/>
<path d="M7 3.5C5.06659 3.5 3.5 5.06676 3.5 7C3.5 8.93252 5.06659 10.5003 7 10.5003C8.93286 10.5003 10.5 8.93252 10.5 7C10.5 5.06676 8.93286 3.5 7 3.5ZM7 9.33362C5.71146 9.33362 4.66672 8.28888 4.66672 7C4.66672 5.71112 5.71146 4.66672 7 4.66672C8.28854 4.66672 9.33328 5.71112 9.33328 7C9.33328 8.28888 8.28854 9.33362 7 9.33362Z" fill="#79A206"/>
</svg>
