<svg width="99" height="100" viewBox="0 0 99 100" fill="none" xmlns="http://www.w3.org/2000/svg">
<path d="M1.44695 50C1.44695 22.6152 23.4727 0.375134 50.7503 0C50.4823 0 50.2144 0 50 0C22.4009 0 0 22.4009 0 50C0 77.5991 22.4009 100 50 100C50.3215 100 50.5895 100 50.911 100C23.5263 99.6785 1.44695 77.4384 1.44695 50Z" fill="#CFCFCF"/>
<path d="M87.1382 83.4941C81.8863 87.7813 75.6698 90.9968 68.8102 92.7117C65.0589 93.6763 56.538 94.1586 56.2701 94.1586C30.8145 93.7835 10.3429 73.6334 10.3429 48.8746C10.3429 24.0622 30.9217 3.91211 56.4308 3.59057C56.6452 3.59057 61.4683 3.75134 63.5584 4.01929C68.2207 4.66238 72.7224 5.94855 76.8488 7.87781C78.9389 8.84244 80.9753 9.96784 82.9046 11.2004C76.2593 5.84137 68.2743 2.14362 59.4855 0.696677C56.8595 0.214362 51.0182 0 50.7502 0C23.4726 0.375134 1.4469 22.6152 1.4469 50C1.4469 77.4384 23.5262 99.6785 50.8574 100C51.0718 100 58.9496 99.8392 65.0589 98.1243C76.6881 94.8553 86.6023 87.4062 93.1404 77.5455C91.3719 79.6892 89.3354 81.672 87.1382 83.4941Z" fill="#CFCFCF"/>
<path d="M66.3988 60.5036C69.4534 59.7534 71.3291 56.6451 70.5788 53.5904C69.8286 50.5358 66.7203 48.6601 63.6656 49.4104C60.611 50.1606 58.7353 53.2689 59.4856 56.3236C60.2358 59.4318 63.3441 61.3075 66.3988 60.5036Z" fill="#CFCFCF"/>
<path opacity="0.7" d="M70.3108 55.3052C70.5252 52.6793 68.5424 50.3213 65.9164 50.1069C63.2905 49.8926 60.9325 51.8754 60.7181 54.5014C60.5038 57.1809 70.0965 57.9847 70.3108 55.3052Z" fill="#CFCFCF"/>
<path d="M93.5691 46.088C93.5691 45.9273 93.5691 45.7665 93.5155 45.5521C93.5155 45.4985 93.5155 45.4985 93.5155 45.4449C91.4255 25.9916 74.2229 11.147 53.8049 10.7183C53.7513 10.7183 53.6442 10.7183 53.5906 10.7183C53.5906 10.7183 53.5906 10.7183 53.537 10.7183C74.9732 11.0934 92.283 28.296 92.283 49.5178C92.283 66.3989 81.2969 80.7611 66.0236 86.0666C65.4341 86.281 63.6656 86.8169 61.5756 87.2992C62.0579 87.3528 62.5402 87.3528 62.9689 87.2992C63.612 87.192 64.2551 87.0312 64.8982 86.8169C65.3269 86.7097 65.7556 86.6025 66.1844 86.4417C66.2915 86.3881 66.3451 86.3881 66.4523 86.3345C66.7739 86.2274 67.149 86.1202 67.4705 86.013C82.7974 80.7075 93.7299 66.3453 93.7299 49.4642C93.7299 48.3924 93.6763 47.2134 93.5691 46.088Z" fill="#CFCFCF"/>
<path d="M61.5219 87.3526C58.3065 87.0311 55.359 84.8874 53.8049 81.4041C52.5187 78.5102 52.1436 75.4019 53.3762 72.8832C56.806 65.6484 65.702 66.7203 65.702 66.7203C64.5766 66.6667 63.8263 66.7738 62.8617 66.881C55.5734 68.0064 53.7513 73.3655 53.7513 73.3655C59.807 78.4566 63.7727 77.224 68.2208 73.2047C71.7577 69.9893 78.4565 72.9903 78.4565 72.9903C78.4565 72.9903 75.2411 66.5595 70.0428 63.7192C67.8992 62.5402 64.0407 61.9507 61.3076 62.7545C53.9121 65.0054 52.1436 72.0793 52.1972 72.0793C51.1789 75.0804 51.2325 78.5638 52.5723 81.6184C54.0192 84.941 56.6988 87.0847 59.6999 87.6742C59.9142 87.7278 60.1286 87.7278 60.3965 87.7813C61.254 87.6742 62.1114 87.5134 62.9689 87.3526C62.4866 87.3526 62.0042 87.3526 61.5219 87.3526Z" fill="#CFCFCF"/>
<path d="M58.1458 88.0493C58.0386 87.9957 57.9314 87.9957 57.8243 87.9421C55.0911 87.0311 52.5188 84.9946 51.0182 81.2433C48.2315 74.2765 53.6978 64.0407 53.6978 64.0407C70.1501 29.6891 29.7964 23.9014 29.7964 23.9014C29.7964 23.9014 41.3719 33.2797 36.8168 42.7117C32.9582 50.7502 32.4759 60.1286 47.2133 69.9357C47.2133 69.9357 54.2873 55.8413 48.8746 42.6045C48.8746 42.6045 54.5016 50.3751 50.0536 65.1661C46.6774 76.3129 48.3923 83.8156 51.8757 88.1029C53.9657 88.21 56.0558 88.2101 58.1458 88.0493Z" fill="#CFCFCF"/>
<path d="M57.2346 8.09229C57.0203 8.09229 52.1971 8.09228 46.4629 9.53923C41.6398 10.7182 37.1917 13.0226 33.226 15.8629C30.7073 17.685 28.4029 19.775 26.3665 22.133C31.5111 17.0419 38.1028 13.3978 45.4983 11.7364C47.9635 11.2005 51.7684 10.7718 53.5905 10.7718C53.6441 10.7718 53.7512 10.7718 53.8048 10.7718C74.2228 11.1469 91.3718 25.9915 93.5154 45.4985C93.5154 45.5521 93.5154 45.5521 93.5154 45.6057C93.5154 45.7665 93.5154 45.9272 93.569 46.1416C93.6762 47.267 93.7298 48.446 93.7298 49.5714C93.7298 66.4524 82.7437 80.8147 67.4704 86.1201C67.1489 86.2273 66.7737 86.3345 66.4522 86.4417C66.345 86.4953 66.2914 86.4953 66.1842 86.5489C65.7555 86.6561 65.3268 86.8168 64.8981 86.924C64.255 87.0848 63.6119 87.2456 62.9688 87.4063C62.1114 87.5671 61.2539 87.7279 60.3965 87.835C59.6462 87.9422 58.9495 87.9958 58.1992 88.103C56.1092 88.2638 54.0192 88.2638 51.9292 88.1566C48.6601 87.9958 45.3911 87.4599 42.1757 86.7096C41.4254 86.5489 40.6215 86.3345 39.8713 86.1201C44.8552 88.5317 51.7148 89.9787 57.2346 90.193C60.0749 90.3002 62.808 89.8715 65.4876 89.3356C84.1907 85.5306 98.2314 68.9712 98.2314 49.1427C98.2314 26.4203 79.9034 8.09229 57.2346 8.09229Z" fill="#CFCFCF"/>
</svg>
