<svg width="38" height="18" viewBox="0 0 38 18" fill="none" xmlns="http://www.w3.org/2000/svg">
<path d="M37.7488 8.23248L29.1127 0.278056C28.8024 -0.0555997 28.2572 -0.0944954 27.895 0.19131C27.5327 0.477047 27.4905 0.979206 27.8008 1.31286C27.8298 1.34397 27.8612 1.37302 27.895 1.39961L35.0544 8.00178H0.863594C0.386673 8.00178 0 8.35792 0 8.79726C0 9.2366 0.386673 9.59268 0.863594 9.59268H35.0544L27.895 16.1868C27.5327 16.4726 27.4905 16.9747 27.8008 17.3084C28.1111 17.6421 28.6562 17.6809 29.0185 17.3951C29.0523 17.3685 29.0838 17.3395 29.1127 17.3084L37.7489 9.35397C38.0837 9.04383 38.0837 8.54276 37.7488 8.23248Z" fill="white"/>
</svg>
