<svg width="89" height="100" viewBox="0 0 89 100" fill="none" xmlns="http://www.w3.org/2000/svg">
<path fillRule="evenodd"clipRule="evenodd" d="M20.3682 28.1358C24.9137 23.5903 32.5662 26.122 32.5662 26.122C24.7411 24.4534 20.3682 28.1358 20.3682 28.1358ZM12.1404 47.0081C24.9712 45.8573 32.4511 50.4028 35.6157 52.5892C26.1795 47.1807 16.9735 46.7204 12.1404 47.0081ZM48.5616 63.061C48.5616 63.061 49.5397 47.9287 42.7503 34.4074C42.7503 34.4074 51.4384 46.3176 48.5616 63.061ZM59.7238 27.1577C65.4776 20.3107 71.519 17.664 76.8124 16.4557C79.2865 15.8803 81.6456 15.6502 83.6594 15.42C71.5765 16.916 64.6145 22.382 58.4005 28.7687C58.8608 28.1933 59.2635 27.6755 59.7238 27.1577ZM40.3337 60.4143C35.5581 56.3867 28.0783 53.3372 16.2831 52.9919C16.2831 52.9919 27.9632 53.9125 35.2129 61.0472C35.2129 61.0472 24.7411 68.0092 7.94016 53.6249C5.00575 51.0932 2.35903 49.4822 0 48.504L1.8412 47.9287C1.8412 47.9287 2.01381 47.8711 2.24396 47.8136C5.40852 46.8354 26.7549 40.9091 42.1749 55.9264C42.6928 46.4902 40.3913 35.8458 37.5144 31.7031C33.6594 26.122 25.8918 27.733 25.8918 27.733C31.7031 27.733 35.5581 30.8976 35.5581 30.8976C35.5581 30.8976 30.725 33.3142 24.9137 30.8976C22.267 29.8044 19.7929 30.0345 17.9517 30.6099L18.1243 30.0921C23.9356 20.5409 36.5362 26.9275 36.5362 26.9275C32.9689 16.916 33.084 9.49367 35.443 5.17837C37.3418 2.01381 41.9448 0 44.9942 0C59.3211 0 52.0138 13.2911 45.3395 10.2992C47.641 10.5869 49.7123 9.43613 50.6904 7.82509C55.2359 0.632912 41.7146 -0.115075 37.7445 5.92635C31.9333 14.7296 45.1669 34.8677 48.389 44.5339C52.7043 30.6674 64.4419 15.1323 86.4787 13.6364L88.2048 13.5788C86.9966 15.6502 85.9033 18.4695 84.9827 22.0944C79.3441 44.649 66.3406 45.5696 58.6306 43.786C58.6306 43.786 61.8527 28.8838 74.1657 20.7135C61.8527 26.5247 58.0552 34.3498 54.5455 46.0875C52.8193 51.8987 51.0932 63.9241 50.9781 69.9655C50.8631 76.7549 53.7399 80.6099 69.8504 78.5961C76.9275 77.733 80.725 78.9989 82.7388 80.2647C82.6812 80.4948 82.5662 80.7825 82.5086 81.0127C80.0345 80.0345 75.4891 78.9989 69.275 80.6099C69.275 80.6099 76.6974 81.7606 79.8619 86.3061C79.7468 86.4787 79.6318 86.6513 79.5167 86.7664C77.5029 84.6375 73.0725 81.588 64.9597 81.588C52.6467 81.588 50.8055 78.6536 50.8055 78.6536C50.8055 78.6536 51.4384 87.1692 62.5432 88.6651C69.3901 89.5857 72.4971 91.3119 73.878 92.4626C73.7629 92.5201 73.6479 92.6352 73.5328 92.6928C71.2888 91.2543 67.9517 90.1611 64.3844 90.2762C64.2117 90.2186 68.1243 92.5201 68.2969 95.7998C67.9517 95.9724 67.664 96.0875 67.3188 96.2601C66.5132 94.0161 64.0967 91.7146 61.9102 90.5639C58.8608 88.9528 52.4166 88.435 50.6329 85.5581C50.0575 93.6133 48.389 92.4051 49.6548 100C49.5397 100 49.3671 100 49.252 100H49.1369C47.9862 97.641 47.1807 96.0299 47.0656 93.5558C44.9942 95.2819 43.6709 96.6053 43.3257 99.6548C43.2106 99.6548 43.038 99.5972 42.9229 99.5972C42.7503 97.641 42.8654 94.8792 44.3038 93.7284C48.504 90.2762 47.6985 86.2486 47.756 85.6157C45.9724 88.4925 39.5282 89.0104 36.4787 90.6214C34.2923 91.7722 31.9333 94.0161 31.0702 96.2601C30.725 96.0875 30.3797 95.9724 30.0921 95.7998C30.3797 92.5201 34.1772 90.2762 34.0046 90.3337C30.5524 90.2762 27.2152 91.3119 24.9712 92.6928C24.7411 92.5201 24.5685 92.3475 24.3383 92.2325C25.4891 90.9666 28.1933 89.183 34.8101 88.2624C45.9148 86.7664 45.3395 76.9275 45.3395 76.9275C45.3395 76.9275 42.5201 81.7031 33.4292 81.588C27.1577 81.473 21.8642 84.9252 19.2175 87.0541C18.9873 86.7664 18.8147 86.4787 18.5846 86.191C21.8067 81.7031 29.0564 80.6099 29.0564 80.6099C22.8999 79.0564 18.4695 79.977 15.9379 80.9551C15.8803 80.7825 15.8228 80.5524 15.7652 80.3797C17.8941 79.1715 21.8067 77.9056 28.4235 78.5386C43.3257 80.1496 48.9068 67.7215 40.3337 60.4143Z" fill="white"/>
<path fillRule="evenodd"clipRule="evenodd" d="M73.4177 92.8074C71.1738 91.369 67.8366 90.2758 64.2693 90.3909L63.4062 89.9306C63.4062 89.9306 69.6203 89.9881 73.4753 92.8074H73.4177ZM58.3429 89.4703C55.7538 88.7223 52.7618 87.9743 51.2083 86.5358L50.5178 85.7303L50.2877 84.407C51.4384 87.1112 56.6168 88.9524 58.3429 89.4703ZM64.0391 81.6452C52.4741 81.5301 50.6905 78.7108 50.6905 78.7108C50.2877 77.9052 50.2877 77.0997 50.2877 76.9846C51.7837 80.4369 59.5512 81.415 64.0391 81.6452ZM33.832 90.3909C30.3798 90.3333 27.0426 91.369 24.7986 92.7499C24.7411 92.6923 24.6836 92.6924 24.626 92.6348C28.5386 89.6429 34.6951 89.873 34.6951 89.873L33.832 90.3909ZM47.5834 85.6728C45.7998 88.5497 39.3556 89.0675 36.3061 90.6785C34.58 91.5991 32.6813 93.2102 31.588 94.9363C32.4511 93.0951 35.2129 90.0456 40.679 88.7798C46.145 87.514 47.4684 84.2919 47.4684 84.2919C47.641 84.8673 47.5834 85.6728 47.5834 85.6728ZM28.8838 80.667C22.7273 79.1135 18.2969 80.0341 15.7653 81.0123V80.9547C22.8424 77.9628 31.3579 80.2643 31.3579 80.2643L28.8838 80.667ZM44.4764 80.8396C45.1669 78.7108 45.0518 76.9846 45.0518 76.9846C45.0518 76.9846 42.2325 81.7602 33.1416 81.6452C26.87 81.5301 21.5765 84.9823 18.9298 87.1112L18.8723 86.9961C25.4315 81.0698 31.7031 81.2424 37.0541 80.4944C42.8654 79.6889 45.7998 73.3022 45.7998 73.3022C45.8573 78.1354 44.8792 79.7464 44.4764 80.8396ZM82.4511 81.0698C79.977 80.0917 75.4315 79.056 69.2175 80.667L66.916 80.4944C66.916 80.4944 75.2014 77.3299 82.5086 80.9547C82.5086 80.9547 82.4511 81.0123 82.4511 81.0698Z" fill="#CFCFCF"/>
<path fillRule="evenodd"clipRule="evenodd" d="M72.7848 41.9447C67.7791 44.8791 62.5432 44.7065 58.6306 43.7859C58.6306 43.7859 58.7457 43.3832 58.9183 42.6352C58.9183 42.6352 78.3084 44.2462 84.9252 22.1519C82.336 32.6237 77.6755 38.7802 72.7848 41.9447Z" fill="#CFCFCF"/>
<path fillRule="evenodd"clipRule="evenodd" d="M7.53748 53.2793C22.2095 64.1539 33.6019 59.7235 33.6019 59.7235H33.7745C33.8896 59.8386 34.0047 59.8961 34.1198 60.0112C34.465 60.3564 34.8677 60.6441 35.213 60.9893C35.213 60.9893 31.358 63.5785 24.511 62.3702C20.1382 61.5647 14.4995 59.2056 7.99777 53.6245C7.82516 53.5094 7.71009 53.3944 7.53748 53.2793Z" fill="#CFCFCF"/>
</svg>
