<svg width="19" height="19" viewBox="0 0 19 19" fill="none" xmlns="http://www.w3.org/2000/svg">
<path d="M18.5501 16.1227L14.1818 11.7542C14.924 10.5726 15.3548 9.17602 15.3548 7.67724C15.3548 3.43697 11.9173 0 7.67723 0C3.43713 0 0 3.43697 0 7.67724C0 11.9177 3.43697 15.3543 7.67723 15.3543C9.3083 15.3543 10.8191 14.8444 12.0623 13.9779L16.3785 18.2945C16.6784 18.5941 17.0716 18.7433 17.4643 18.7433C17.8575 18.7433 18.2501 18.5941 18.5505 18.2945C19.1499 17.6945 19.1499 16.7226 18.5501 16.1227ZM7.67723 12.867C4.81131 12.867 2.48779 10.5436 2.48779 7.67756C2.48779 4.81147 4.81131 2.48795 7.67723 2.48795C10.5433 2.48795 12.8667 4.81147 12.8667 7.67756C12.8667 10.5436 10.5433 12.867 7.67723 12.867Z" fill="white"/>
</svg>
