<svg width="45" height="53" viewBox="0 0 45 53" fill="none" xmlns="http://www.w3.org/2000/svg">
<path d="M43.5412 9.54663C36.3866 7.58628 29.19 4.53382 22.7293 0.719345C22.3861 0.516729 21.9603 0.516729 21.6172 0.719345C14.9702 4.64341 8.16246 7.53072 0.804779 9.54663C0.329468 9.67673 0 10.1088 0 10.6017V21.7782C0 33.2875 5.30957 40.9059 9.76389 45.2701C14.5593 49.9689 20.1452 52.5674 22.1733 52.5674C24.2012 52.5674 29.7871 49.9689 34.5825 45.2701C39.0367 40.906 44.3459 33.2876 44.3459 21.7782V10.6016C44.3459 10.1088 44.0165 9.67673 43.5412 9.54663ZM42.1583 21.7781C42.1583 32.5277 37.206 39.6366 33.0513 43.7074C28.3357 48.328 23.2938 50.3795 22.1733 50.3795C21.0527 50.3795 16.0106 48.328 11.2948 43.7074C7.14023 39.6365 2.18775 32.5277 2.18775 21.7781V11.4319C9.22378 9.4342 15.7764 6.64621 22.1735 2.92873C28.4108 6.5476 35.2903 9.47422 42.1583 11.4315V21.7781Z" fill="black"/>
<path d="M14.7172 24.3351C14.0456 23.6634 13.1524 23.2937 12.2024 23.2937C11.2523 23.2937 10.359 23.6635 9.68707 24.3351C8.30044 25.7221 8.30044 27.9788 9.68707 29.3656L16.146 35.8244C16.8178 36.4959 17.711 36.8657 18.6611 36.8657C19.6112 36.8657 20.5045 36.4959 21.1763 35.8241L34.6598 22.3405C36.0463 20.9533 36.0463 18.6969 34.6596 17.3105C33.9879 16.6387 33.0946 16.269 32.1444 16.269C31.1943 16.269 30.3011 16.6388 29.6292 17.3105L18.661 28.2787L14.7172 24.3351ZM31.1762 18.8575C31.4347 18.599 31.7787 18.4567 32.1445 18.4567C32.5105 18.4567 32.8542 18.599 33.1129 18.8575C33.6466 19.3912 33.6466 20.2599 33.1127 20.7938L19.6294 34.2773C19.3709 34.5357 19.0269 34.678 18.6611 34.678C18.2953 34.678 17.9513 34.5357 17.6927 34.2773L11.234 27.8187C10.7 27.2848 10.7 26.416 11.2338 25.8823C11.4923 25.6238 11.8363 25.4813 12.2023 25.4813C12.5682 25.4813 12.912 25.6236 13.1704 25.8821L17.8875 30.5993C18.0928 30.8043 18.3708 30.9196 18.661 30.9196C18.9512 30.9196 19.2292 30.8044 19.4343 30.5993L31.1762 18.8575Z" fill="black"/>
</svg>
