<svg width="22" height="22" viewBox="0 0 22 22" fill="none" xmlns="http://www.w3.org/2000/svg">
<path d="M7.80983 1L4.18982 4.63" stroke="#292D32" stroke-miterlimit="10" stroke-linecap="round" stroke-linejoin="round"/>
<path d="M14.1895 1L17.8095 4.63" stroke="#292D32" stroke-miterlimit="10" stroke-linecap="round" stroke-linejoin="round"/>
<path d="M1 6.85003C1 5.00002 1.99 4.85002 3.22 4.85002H18.78C20.01 4.85002 21 5.00002 21 6.85003C21 9.00002 20.01 8.85002 18.78 8.85002H3.22C1.99 8.85002 1 9.00002 1 6.85003Z" stroke="#292D32"/>
<path d="M8.75903 13.0001V16.55" stroke="#292D32" stroke-linecap="round"/>
<path d="M13.3597 13.0001V16.55" stroke="#292D32" stroke-linecap="round"/>
<path d="M2.5 9.00003L3.91 17.64C4.22999 19.58 5 21 7.86 21H13.89C17 21 17.46 19.64 17.82 17.76L19.5 9.00003" stroke="#292D32" stroke-linecap="round"/>
</svg>
