<svg width="101" height="100" viewBox="0 0 101 100" fill="none" xmlns="http://www.w3.org/2000/svg">
<path d="M48.5311 27.8496L46.651 20.7991C46.651 20.7991 42.5382 24.3243 40.188 28.3196C40.188 28.3196 40.5405 32.0799 42.8907 38.3079L48.5311 27.8496Z" fill="white"/>
<path d="M47.2385 30.0819L54.1715 27.6143C54.1715 27.6143 53.584 33.0197 51.4688 37.1325C51.4688 37.1325 48.0611 38.8951 41.7156 40.4227L47.2385 30.0819Z" fill="white"/>
<path d="M53.1139 14.571L50.7638 16.5687C50.1762 17.1562 49.4712 17.9788 48.7661 18.8014L50.1762 24.9118L53.349 19.2714L53.1139 14.571Z" fill="white"/>
<path d="M55.4643 19.7415L55.1117 22.7967C54.9942 23.6192 54.6417 24.6768 54.2892 25.7344L48.5312 27.9671L51.5865 22.3266L55.4643 19.7415Z" fill="white"/>
<path d="M40.658 42.303L33.6075 54.7589C33.6075 54.7589 29.7297 47.8259 31.9624 37.6026L38.3078 28.907C38.3078 29.0245 36.8977 35.37 40.658 42.303Z" fill="white"/>
<path d="M39.3655 43.831L32.3149 56.287C32.3149 56.287 40.8931 55.9344 48.0611 48.4139L51.7039 38.3081C51.7039 38.4256 47.1211 43.126 39.3655 43.831Z" fill="white"/>
<path d="M30.5524 59.4599C30.5524 59.4599 27.3797 53.8195 28.2022 44.6538C28.2022 44.6538 22.3268 56.5222 24.677 70.1532L30.5524 59.4599Z" fill="white"/>
<path d="M31.6099 60.2819C31.6099 60.2819 37.9554 59.8119 45.2409 54.054C45.2409 54.054 38.6604 65.4523 25.9695 71.2102L31.6099 60.2819Z" fill="white"/>
<path d="M56.2867 14.2185L18.4489 86.0164L16.2162 84.8413L56.2867 14.2185Z" fill="white"/>
<path d="M54.8766 17.0391C55.9342 15.9815 57.6968 15.1589 57.8143 15.1589C57.9318 13.7488 57.5793 12.5737 57.5793 12.5737H57.4618C55.5817 13.2788 54.8766 14.2189 54.8766 14.2189L54.6416 17.5091C54.6416 17.3916 54.6416 17.2741 54.8766 17.0391Z" fill="white"/>
<path d="M72.738 62.7496C74.5006 61.5745 76.3808 60.517 78.3784 59.5769C78.3784 59.5769 73.5606 57.2267 68.8602 56.9917C68.8602 56.9917 65.4525 58.5193 61.8097 62.7496C65.335 62.5146 68.9777 62.5146 72.738 62.7496Z" fill="white"/>
<path d="M70.2704 62.5145C71.9155 63.9246 73.4431 65.3347 74.8532 66.7448C74.8532 66.7448 70.2704 67.6849 66.3926 67.9199C66.3926 67.9199 63.8074 66.2748 59.342 62.8671C62.9848 62.5145 66.6276 62.397 70.2704 62.5145Z" fill="white"/>
<path d="M86.1339 63.5722C85.3114 62.9846 84.4888 62.5146 83.6662 61.927C82.8437 61.5745 82.0211 61.1045 80.9635 60.752C79.2009 61.457 77.5558 62.2796 75.9106 63.2196C77.9083 63.5722 79.9059 63.9247 81.7861 64.3947C83.1962 64.0422 84.6063 63.8072 86.1339 63.5722Z" fill="white"/>
<path d="M82.0212 66.0394C81.0812 66.1569 80.1411 66.2745 79.3185 66.392C78.496 66.392 77.5559 66.5095 76.6158 66.5095C75.3232 65.2169 74.0306 64.0418 72.738 62.8667C74.7357 62.9842 76.7333 63.3367 78.731 63.5718C79.7886 64.3943 80.9637 65.2169 82.0212 66.0394Z" fill="white"/>
<path d="M57.4617 63.2197C53.1139 63.8073 48.7661 64.7474 44.5358 66.275C44.5358 66.3925 46.2984 59.577 56.2866 55.5817C59.9294 55.4642 63.6897 55.5817 67.3325 55.9342C67.3325 55.8167 60.752 57.4618 57.4617 63.2197Z" fill="white"/>
<path d="M55.5817 63.2192C51.2339 63.9243 46.8861 65.0994 42.6558 66.627C42.6558 66.7445 48.6487 70.1523 56.9918 70.7398C59.812 69.7997 62.6323 69.0947 65.6875 68.6246C65.57 68.6246 60.3996 67.4496 55.5817 63.2192Z" fill="white"/>
<path d="M39.6005 67.9197C39.6005 68.0372 40.5406 62.5143 48.1787 57.2264C48.4137 56.8738 34.3126 61.5742 29.4948 73.5601C32.785 71.3274 36.1928 69.4473 39.6005 67.9197Z" fill="white"/>
<path d="M39.8355 68.9778C39.8355 69.0953 44.6533 71.2104 51.9389 72.033C51.7039 72.033 42.0681 74.1482 29.9647 74.7357C33.1375 72.503 36.4277 70.6229 39.8355 68.9778Z" fill="white"/>
<path d="M87.1916 65.9222C62.5148 58.1666 35.6053 65.8047 18.684 85.3111C18.214 84.8411 17.7439 84.3711 17.1564 84.0185C35.1352 64.2771 62.7498 57.5791 87.1916 65.9222Z" fill="white"/>
<path d="M84.3713 65.2176C85.5464 65.8051 86.7215 67.2152 86.7215 67.2152C88.0141 67.0977 88.9542 66.8627 88.9542 66.8627C88.9542 66.8627 88.9542 66.7452 88.8367 66.7452C87.7791 65.3351 86.839 64.7476 86.839 64.7476C85.7814 64.7476 84.7238 64.8651 83.6663 64.9826C83.9013 64.9826 84.0188 65.1001 84.3713 65.2176C84.2538 65.2176 84.2538 65.2176 84.3713 65.2176Z" fill="white"/>
<path d="M50.0588 0C50.0588 0 51.2338 0 53.4665 0.117509C54.0541 0.117509 54.6416 0.117509 55.3467 0.235018C56.0517 0.352526 56.7568 0.470035 57.5793 0.587544C58.4019 0.705053 59.2245 0.822562 60.1645 0.940071C61.1046 1.17509 62.0447 1.41011 62.9847 1.76263C66.98 2.82021 71.7979 4.58284 76.7333 7.75558C81.6686 10.8108 86.7215 15.2761 90.9518 21.1516C95.0646 27.027 98.3549 34.4301 99.6475 42.7732C99.8825 43.8308 99.8825 44.8884 100 45.9459L100.118 47.5911L100.235 48.4136V49.2362C100.118 51.3514 100.235 53.349 99.8825 55.6992C99.53 60.282 98.2374 64.6299 96.5923 68.9777C96.1222 70.0353 95.6522 71.0928 95.1822 72.1504C94.7121 73.208 94.0071 74.2656 93.4195 75.3231L92.4794 76.8508C92.1269 77.3208 91.7744 77.7908 91.4219 78.3784C90.7168 79.3184 90.0118 80.376 89.3067 81.3161C86.2515 85.0764 82.6087 88.4841 78.4959 91.3043C74.3831 94.1246 69.8002 96.3572 64.9824 97.8848L61.3396 98.8249L60.3995 99.0599L59.4595 99.1774L57.5793 99.53C56.4042 99.6475 55.1116 99.8825 53.819 99.8825L51.9389 100H50.9988H50.5288H50.2938H50.1763C50.0588 100 50.2938 100 49.9413 100L46.416 99.765C45.8284 99.765 45.2409 99.765 44.6534 99.6475L42.6557 99.4125L40.6581 99.0599L39.718 98.9424L38.7779 98.8249L35.1351 97.8848C30.3173 96.3572 25.7344 94.1246 21.6216 91.3043C17.6263 88.3666 13.866 85.0764 10.8108 81.3161C10.1058 80.376 9.40071 79.3184 8.69565 78.3784C8.34313 77.9083 7.9906 77.4383 7.63807 76.8508L6.698 75.3231C6.11046 74.2656 5.52291 73.3255 4.93537 72.1504C4.46534 71.0928 3.9953 70.0353 3.52526 68.9777C1.99765 64.6299 0.705053 60.1645 0.352526 55.6992C0 53.4665 0.117509 51.2338 0 49.1187V48.7662V48.5311V48.4136V48.1786L0.117509 47.3561L0.235018 45.8284C0.352526 44.7709 0.352526 43.8308 0.587544 42.7732C0.822562 41.7156 0.940071 40.6581 1.17509 39.6005C1.2926 39.1304 1.2926 38.5429 1.52761 38.0729L1.99765 36.5452C2.23267 35.6052 2.58519 34.5476 2.82021 33.6075C3.17274 32.6675 3.52526 31.7274 3.87779 30.9048C5.2879 27.262 7.28555 23.9718 9.2832 21.0341C13.5135 15.1586 18.5664 10.6933 23.5018 7.63807C28.4371 4.46533 33.255 2.82021 37.2503 1.64512C38.3079 1.41011 39.2479 1.17509 40.0705 0.940071C41.0106 0.705053 41.8331 0.705053 42.6557 0.470035C43.4783 0.352526 44.1833 0.235018 44.8884 0.117509C45.5934 0 46.181 0 46.7685 0C48.8837 0 50.0588 0 50.0588 0ZM50.0588 0C50.0588 0 48.8837 0.117509 46.651 0.235018C46.0635 0.235018 45.4759 0.235018 44.7709 0.352526C44.0658 0.470035 43.3608 0.587544 42.5382 0.705053C41.7156 0.822562 40.8931 0.940071 39.953 1.17509C39.0129 1.41011 38.0729 1.64512 37.1328 1.88014C33.1375 3.05523 28.4371 4.81786 23.6193 8.22562C18.9189 11.5159 14.1011 15.9812 10.3408 21.9741C8.69565 24.9119 7.05053 28.2021 5.87544 31.7274C5.64042 32.6675 5.2879 33.49 5.05288 34.4301C4.81786 35.3702 4.70035 36.3102 4.46534 37.2503L4.11281 38.6604C3.9953 39.1304 3.9953 39.6005 3.87779 40.0705C3.76028 41.0106 3.64277 41.9506 3.52526 43.0082C3.40776 43.9483 3.52526 45.0059 3.40776 46.0635V47.5911V48.4136L3.52526 49.0012C3.76028 50.9988 3.76028 53.114 4.23032 55.1116C4.81786 59.2244 6.34548 63.1022 8.10811 66.98C8.57814 67.9201 9.04818 68.8602 9.63572 69.8002C10.1058 70.7403 10.8108 71.5629 11.3984 72.5029L12.2209 73.7955L13.2785 75.0881C13.9836 75.9107 14.5711 76.8508 15.2761 77.5558C18.0964 80.7286 21.5041 83.6663 25.1469 86.0165L27.9671 87.6616C28.4371 87.8966 28.9072 88.2491 29.3772 88.3666L30.9048 89.0717L32.4324 89.7767C32.9025 90.0118 33.49 90.1293 33.9601 90.3643C35.0176 90.7168 36.0752 91.1868 37.1328 91.4219L40.3055 92.2444L41.1281 92.4794L41.9507 92.597L43.4783 92.832L45.0059 93.067C45.4759 93.1845 46.181 93.1845 46.7685 93.1845L50.2938 93.302C49.9413 93.302 50.2938 93.302 50.1763 93.302H50.2938H50.5288H50.9988H51.8214L53.4665 93.1845C54.5241 93.1845 55.6992 92.9495 56.7568 92.832L58.4019 92.597L59.2245 92.4794L60.047 92.2444L63.2197 91.4219C64.2773 91.0693 65.3349 90.7168 66.3925 90.3643C66.8625 90.1293 67.4501 90.0118 67.9201 89.7767L69.4477 89.0717L70.9753 88.3666C71.4454 88.1316 72.0329 87.8966 72.3854 87.6616L75.2057 86.0165C78.8484 83.6663 82.2562 80.7286 85.0764 77.5558C85.7814 76.7333 86.4865 75.9107 87.074 75.0881L88.1316 73.7955L88.9542 72.5029C89.5417 71.5629 90.1293 70.7403 90.7168 69.8002C91.1868 68.8602 91.6569 67.9201 92.2444 66.98L92.597 66.275L92.9495 65.5699L93.537 64.1598C93.8896 63.2197 94.3596 62.2797 94.5946 61.2221C94.9471 60.1645 95.1822 59.2244 95.5347 58.2844C95.7697 57.3443 95.8872 56.2867 96.1222 55.3467C96.5923 53.4665 96.7098 51.2338 96.8273 49.1187V48.4136V47.7086V46.181C96.8273 45.2409 96.8273 44.1833 96.7098 43.2432C96.5923 42.3032 96.4747 41.2456 96.3572 40.3055C96.2397 39.8355 96.2397 39.3655 96.1222 38.8954L95.7697 37.4853C95.5347 36.5452 95.4172 35.6052 95.1822 34.6651C94.9471 33.725 94.5946 32.9025 94.3596 31.9624C93.1845 28.3196 91.5394 25.1469 89.7767 22.0917C86.0165 15.9812 81.1986 11.3984 76.3807 8.10811C71.6804 4.81786 66.98 3.05523 62.9847 1.88014C61.9272 1.64512 60.9871 1.41011 60.1645 1.17509C59.2245 0.940071 58.4019 0.822562 57.5793 0.705053C56.7568 0.587544 56.0517 0.470035 55.3467 0.352526C54.6416 0.235018 54.0541 0.235018 53.4665 0.235018C51.2338 0.117509 50.0588 0 50.0588 0Z" fill="white"/>
</svg>
