<svg width="13" height="16" viewBox="0 0 13 16" fill="none" xmlns="http://www.w3.org/2000/svg">
<path d="M6.71752 0C2.33218 0 0 2.81022 0 5.87445C0 7.29556 0.794061 9.0677 2.06516 9.62974C2.25817 9.71675 2.36318 9.67975 2.40619 9.50073C2.44419 9.36472 2.6112 8.70967 2.69221 8.40065C2.71721 8.30164 2.70421 8.21563 2.6242 8.12263C2.20217 7.63459 1.86714 6.74552 1.86714 5.91146C1.86714 3.77429 3.56627 1.69913 6.4575 1.69913C8.95769 1.69913 10.7068 3.32326 10.7068 5.64643C10.7068 8.27164 9.31772 10.0878 7.51258 10.0878C6.5135 10.0878 5.76944 9.30372 6.00546 8.33364C6.29048 7.17855 6.84953 5.93646 6.84953 5.10339C6.84953 4.35634 6.4275 3.73829 5.56543 3.73829C4.54835 3.73829 3.72329 4.74537 3.72329 6.09747C3.72329 6.95654 4.02731 7.53658 4.02731 7.53658C4.02731 7.53658 3.02123 11.6009 2.83422 12.36C2.51819 13.6451 2.87722 15.7262 2.90822 15.9052C2.92723 16.0042 3.03823 16.0352 3.10024 15.9542C3.19925 15.8242 4.41534 14.0891 4.75637 12.835C4.88038 12.378 5.38941 10.5248 5.38941 10.5248C5.72444 11.1299 6.69151 11.6369 7.72159 11.6369C10.7858 11.6369 13 8.94369 13 5.60143C12.989 2.39718 10.2468 0 6.71752 0Z" fill="#979797"/>
</svg>
