<svg width="18" height="18" viewBox="0 0 18 18" fill="none" xmlns="http://www.w3.org/2000/svg">
<path d="M0.599986 1.19997H2.52474L4.64569 10.2154C4.18315 10.2532 3.75324 10.4687 3.44616 10.8167C3.13908 11.1647 2.97869 11.618 2.99863 12.0817C3.01858 12.5453 3.21731 12.9833 3.55314 13.3036C3.88897 13.6239 4.3358 13.8017 4.79988 13.7997H14.9996C15.1588 13.7997 15.3114 13.7365 15.4239 13.6239C15.5364 13.5114 15.5996 13.3588 15.5996 13.1997C15.5996 13.0406 15.5364 12.8879 15.4239 12.7754C15.3114 12.6629 15.1588 12.5997 14.9996 12.5997H4.79988C4.64076 12.5997 4.48815 12.5365 4.37563 12.424C4.26311 12.3114 4.1999 12.1588 4.1999 11.9997C4.1999 11.8406 4.26311 11.688 4.37563 11.5755C4.48815 11.4629 4.64076 11.3997 4.79988 11.3997H14.9288C15.3348 11.4008 15.7291 11.2641 16.0473 11.012C16.3656 10.7599 16.5889 10.4074 16.6808 10.012L17.9522 4.61209C18.0143 4.34785 18.0159 4.07297 17.9568 3.80802C17.8977 3.54308 17.7795 3.29493 17.6109 3.08216C17.4423 2.86939 17.2278 2.6975 16.9834 2.57935C16.739 2.46121 16.4711 2.39988 16.1996 2.39994H4.0397L3.58431 0.462589C3.55333 0.330887 3.47874 0.213524 3.37266 0.12955C3.26658 0.0455761 3.13523 -7.74994e-05 2.99993 9.87576e-08H0.599986C0.44086 9.87576e-08 0.288251 0.0632127 0.175732 0.175732C0.0632126 0.288251 0 0.44086 0 0.599986C0 0.759112 0.0632126 0.91172 0.175732 1.02424C0.288251 1.13676 0.44086 1.19997 0.599986 1.19997ZM16.1996 3.59991C16.2895 3.60163 16.3779 3.62322 16.4585 3.66313C16.5391 3.70304 16.6099 3.76029 16.6657 3.83077C16.7216 3.90125 16.7612 3.98321 16.7816 4.07078C16.802 4.15836 16.8029 4.24937 16.784 4.3373L15.512 9.73717C15.4817 9.86898 15.4074 9.98656 15.3015 10.0706C15.1955 10.1547 15.0641 10.2002 14.9288 10.1998H5.87506L4.3199 3.59991H16.1996Z" fill="white"/>
<path d="M11.3998 16.1999C11.3998 16.5559 11.5053 16.9039 11.7031 17.1999C11.9009 17.4959 12.182 17.7266 12.5109 17.8628C12.8398 17.999 13.2017 18.0347 13.5509 17.9652C13.9 17.8958 14.2208 17.7243 14.4725 17.4726C14.7242 17.2209 14.8957 16.9002 14.9651 16.551C15.0346 16.2019 14.9989 15.8399 14.8627 15.511C14.7264 15.1821 14.4957 14.901 14.1997 14.7032C13.9037 14.5055 13.5557 14.3999 13.1997 14.3999C12.7224 14.3999 12.2645 14.5895 11.927 14.9271C11.5894 15.2647 11.3998 15.7225 11.3998 16.1999ZM13.7997 16.1999C13.7997 16.3185 13.7645 16.4345 13.6986 16.5332C13.6327 16.6319 13.539 16.7088 13.4293 16.7542C13.3197 16.7996 13.1991 16.8115 13.0827 16.7883C12.9663 16.7652 12.8594 16.708 12.7755 16.6241C12.6916 16.5402 12.6344 16.4333 12.6113 16.3169C12.5881 16.2005 12.6 16.0799 12.6454 15.9703C12.6908 15.8606 12.7677 15.7669 12.8664 15.701C12.9651 15.6351 13.0811 15.5999 13.1997 15.5999C13.3589 15.5999 13.5115 15.6631 13.624 15.7756C13.7365 15.8881 13.7997 16.0407 13.7997 16.1999Z" fill="white"/>
<path d="M4.7998 16.1999C4.7998 16.5559 4.90537 16.9039 5.10315 17.1999C5.30093 17.4959 5.58205 17.7266 5.91095 17.8628C6.23985 17.999 6.60176 18.0347 6.95092 17.9652C7.30007 17.8958 7.62079 17.7243 7.87252 17.4726C8.12425 17.2209 8.29568 16.9002 8.36513 16.551C8.43458 16.2019 8.39894 15.8399 8.2627 15.511C8.12647 15.1821 7.89577 14.901 7.59976 14.7032C7.30376 14.5055 6.95576 14.3999 6.59976 14.3999C6.12238 14.3999 5.66456 14.5895 5.327 14.9271C4.98944 15.2647 4.7998 15.7225 4.7998 16.1999ZM7.19975 16.1999C7.19975 16.3185 7.16456 16.4345 7.09863 16.5332C7.0327 16.6319 6.939 16.7088 6.82937 16.7542C6.71973 16.7996 6.5991 16.8115 6.48271 16.7883C6.36632 16.7652 6.25942 16.708 6.17551 16.6241C6.0916 16.5402 6.03445 16.4333 6.0113 16.3169C5.98815 16.2005 6.00004 16.0799 6.04545 15.9703C6.09086 15.8606 6.16776 15.7669 6.26643 15.701C6.36509 15.6351 6.4811 15.5999 6.59976 15.5999C6.75889 15.5999 6.9115 15.6631 7.02402 15.7756C7.13653 15.8881 7.19975 16.0407 7.19975 16.1999Z" fill="white"/>
</svg>
