<svg width="15" height="13" viewBox="0 0 15 13" fill="none" xmlns="http://www.w3.org/2000/svg">
<path d="M15 1.44281C14.4422 1.6875 13.8478 1.84969 13.2281 1.92844C13.8656 1.54781 14.3522 0.949687 14.5809 0.22875C13.9866 0.583125 13.3303 0.833438 12.6309 0.973125C12.0666 0.372188 11.2622 0 10.3847 0C8.68219 0 7.31156 1.38188 7.31156 3.07594C7.31156 3.31969 7.33219 3.55406 7.38281 3.77719C4.82625 3.6525 2.56406 2.42719 1.04437 0.560625C0.779062 1.02094 0.623438 1.54781 0.623438 2.115C0.623438 3.18 1.17188 4.12406 1.98937 4.67062C1.49531 4.66125 1.01063 4.51781 0.6 4.29187C0.6 4.30125 0.6 4.31344 0.6 4.32562C0.6 5.82 1.66594 7.06125 3.06375 7.34719C2.81344 7.41563 2.54063 7.44844 2.2575 7.44844C2.06063 7.44844 1.86187 7.43719 1.67531 7.39594C2.07375 8.61375 3.20438 9.50906 4.54875 9.53813C3.5025 10.3566 2.17406 10.8497 0.735938 10.8497C0.48375 10.8497 0.241875 10.8384 0 10.8075C1.36219 11.6859 2.97656 12.1875 4.7175 12.1875C10.3763 12.1875 13.47 7.5 13.47 3.43687C13.47 3.30094 13.4653 3.16969 13.4587 3.03938C14.0691 2.60625 14.5819 2.06531 15 1.44281Z" fill="#979797"/>
</svg>
