<svg width="87" height="100" viewBox="0 0 87 100" fill="none" xmlns="http://www.w3.org/2000/svg">
<path d="M80.8237 22.1189C71.8053 5.95012 52.9953 -3.13277 34.0565 0.989961C19.8846 4.08201 8.93364 13.7447 3.58698 26.0484C7.06553 31.4595 12.2834 36.0332 16.9214 38.4166C21.173 40.6068 25.7466 42.024 29.9982 44.2142L5.71276 27.1435L32.124 43.1191L10.1576 21.4104L33.6056 41.5087L15.5042 16.5146L35.2805 40.1559L21.5595 12.5207L37.213 39.1252L28.1945 9.62193L39.2099 38.4166L35.216 7.81823L41.3357 38.0301L42.4308 7.17406L43.5259 38.0301L49.6456 7.81823L45.6517 38.4166L56.6671 9.62193L47.6486 39.1252L63.3021 12.5207L49.6456 40.1559L69.4218 16.5146L51.3849 41.5087L74.8329 21.4104L52.8021 43.1191L76.5722 28.754C78.3115 26.6926 79.7931 24.5024 80.8237 22.1189ZM59.4371 42.7326C60.0813 42.2817 60.7254 41.8952 61.3696 41.4442C65.8144 38.481 71.612 34.4871 76.0568 29.3337L54.026 44.9228L59.4371 42.7326Z" fill="white"/>
<path d="M42.0444 91.6901C41.4646 85.9569 41.7223 80.5458 41.9155 76.4875C43.5904 45.6959 76.7655 45.1805 82.4342 25.4043C83.6582 28.1098 84.6244 31.0086 85.2686 34.0363C90.1644 56.5824 76.4434 78.871 54.3481 84.7974C52.4156 67.5334 65.2347 56.7113 65.2347 56.7113C48.8726 63.604 46.5536 76.6807 46.4248 91.8189C58.2132 92.3987 69.0998 95.2974 78.1183 99.9999C67.1028 97.7453 54.9923 96.457 42.2376 96.457C29.4829 96.457 17.3724 97.7453 6.35699 99.9999C16.3417 94.7821 28.7099 91.7545 42.0444 91.6901Z" fill="white"/>
<path d="M41.7867 63.5392C34.4431 39.8335 14.9245 49.4962 2.29866 29.269C1.33239 32.1034 0.688216 35.0666 0.30171 38.0943C-2.40383 61.0269 13.3785 81.8983 35.9247 85.6989C36.2468 68.3061 22.5258 58.7079 22.5258 58.7079C32.124 61.6711 37.213 67.5975 39.5965 74.8767C39.3388 70.5608 40.1762 66.8245 41.7867 63.5392Z" fill="white"/>
<path d="M77.6673 99.8711C66.7807 97.6165 54.799 96.3926 42.1732 96.3926C29.4185 96.3926 17.308 97.681 6.29254 99.9356L6.4858 99.8067C16.9215 96.1993 29.0964 94.2024 42.0443 94.2024C55.0567 94.2024 67.2316 96.2638 77.6673 99.8711Z" fill="white"/>
<path fillRule="evenodd" clipRule="evenodd" d="M54.2193 81.0616C54.2193 82.2856 54.2837 83.5095 54.4125 84.7979C76.4434 78.8714 90.2287 56.5829 85.333 34.0368C85.0109 32.4907 84.56 31.0091 84.1091 29.5275C85.0109 32.9417 85.4618 36.549 85.4618 40.2208C85.4618 59.7394 72.1918 76.2303 54.2193 81.0616ZM35.7958 81.8991C15.9552 78.4205 0.881444 61.0922 0.881444 40.2208C0.881444 36.4846 1.39679 32.8128 2.29863 29.3987C1.33237 32.1686 0.688191 35.0674 0.366102 38.0951C-2.33944 61.0277 13.4429 81.8991 35.9891 85.6997C35.9247 84.4114 35.9247 83.123 35.7958 81.8991Z" fill="white"/>
<path fillRule="evenodd" clipRule="evenodd" d="M33.8632 4.01755C51.8357 0.345741 69.5506 7.30285 79.8574 20.444C70.5169 5.37032 52.3511 -2.93956 34.0565 0.989917C20.5932 3.95313 9.96426 12.8428 4.35992 24.3091C10.544 14.3244 20.9797 6.65867 33.8632 4.01755Z" fill="white"/>
</svg>
