<svg width="96" height="100" viewBox="0 0 96 100" fill="none" xmlns="http://www.w3.org/2000/svg">
<path fillRule="evenodd"clipRule="evenodd" d="M37.7717 71.6464C34.9745 73.8079 25.1208 79.9109 12.5969 69.5485C-2.21553 57.279 0.136666 39.415 0.136666 39.415C9.92687 49.0781 35.9917 40.8136 40.7597 61.9834C33.6395 55.0539 22.1964 51.0489 12.4698 50.9217C17.6192 53.2739 26.0743 56.834 32.3045 63.0641C34.6567 65.3527 36.6274 68.1499 37.6446 71.265C37.7082 71.3921 37.7082 71.5193 37.7717 71.6464Z" fill="white"/>
<path fillRule="evenodd"clipRule="evenodd" d="M37.7717 71.6465C34.9745 73.8079 25.1208 79.9109 12.5969 69.5486C7.57467 65.3528 4.52318 60.5848 2.67957 56.0076C8.2104 65.162 20.9885 78.6395 36.8181 69.1036C37.136 69.8029 37.4539 70.5022 37.6446 71.2015C37.7082 71.3922 37.7082 71.5193 37.7717 71.6465Z" fill="white"/>
<path fillRule="evenodd"clipRule="evenodd" d="M49.024 59.6309C58.2421 46.4713 77.6318 48.6328 92.5078 40.114C92.5078 40.114 97.3393 84.7421 54.4913 85.4414C54.682 72.2818 64.5358 62.4281 75.0889 56.0072L79.4754 53.3371L74.4531 54.2272C73.8174 54.3543 73.1817 54.545 72.546 54.7357C70.8931 55.2443 69.3038 55.8801 67.7144 56.5794C62.2472 59.0587 57.2249 62.6188 52.8384 66.751C52.6477 66.9417 52.457 67.1324 52.2027 67.3232V67.1324C51.567 64.2081 50.5498 62.2373 49.024 59.6309Z" fill="white"/>
<path fillRule="evenodd"clipRule="evenodd" d="M92.6986 45.3279C92.4443 57.0888 88.3121 84.9337 54.5549 85.4423C54.5549 84.5523 54.6185 83.5987 54.7457 82.7087C86.9135 81.5008 91.3636 56.6438 92.6986 45.3279Z" fill="white"/>
<path fillRule="evenodd"clipRule="evenodd" d="M57.7338 0C53.4744 11.6338 81.065 42.5302 46.545 53.5283C41.777 37.3808 48.8336 17.5461 48.5793 17.3554C39.0434 28.7349 37.009 42.403 39.6791 52.9561C39.6791 52.9561 29.3803 45.8995 33.6397 26.2556C37.8355 6.54799 57.7338 0 57.7338 0Z" fill="white"/>
<path fillRule="evenodd"clipRule="evenodd" d="M63.1373 25.1746C65.7438 36.2998 64.7902 47.6793 46.5448 53.528C46.5448 53.528 66.3159 45.8357 63.1373 25.1746Z" fill="white"/>
<path fillRule="evenodd"clipRule="evenodd" d="M53.6014 87.0947C70.4482 90.019 86.7864 84.1067 95.8137 68.9129C88.1214 87.1582 70.0668 99.9999 49.0242 99.9999C27.2187 99.9999 8.59192 86.2046 1.4082 66.8785C12.8513 82.5174 44.5741 89.9554 38.5347 71.0108C34.6568 58.8048 16.1571 51.9389 16.1571 51.9389C29.9524 54.4818 37.2632 59.6312 41.014 63.7635C43.1119 66.0521 43.4298 67.1328 44.8284 69.6757C39.3611 50.6039 35.2925 38.3344 47.7527 18.8811C47.7527 18.8811 37.7718 43.0388 48.3249 60.712C48.3249 60.712 50.995 64.9078 51.44 69.485C52.1393 68.7857 52.775 68.0864 53.4743 67.4507C64.3452 57.0883 74.5804 55.1811 74.5804 55.1811C63.5824 61.9199 52.6478 73.0451 53.6014 87.0947Z" fill="white"/>
<path fillRule="evenodd"clipRule="evenodd" d="M49.0241 97.5207C31.478 97.5207 15.9027 89.3198 6.30322 76.6052C15.3306 90.6548 31.0966 99.9364 49.0241 99.9364C66.8245 99.9364 82.4634 90.782 91.5543 76.9231C81.9548 89.4469 66.5066 97.5207 49.0241 97.5207Z" fill="white"/>
</svg>
