<svg width="35" height="18" viewBox="0 0 35 18" fill="none" xmlns="http://www.w3.org/2000/svg">
<path d="M0.231335 9.35443L8.18569 17.3089C8.47143 17.6425 8.97359 17.6814 9.30725 17.3956C9.6409 17.1099 9.6798 16.6077 9.39399 16.2741C9.36733 16.2429 9.33835 16.2139 9.30725 16.1873L2.71308 9.58514H34.2046C34.6439 9.58514 35 9.22899 35 8.78965C35 8.35032 34.6439 7.99424 34.2046 7.99424H2.71308L9.30725 1.40007C9.6409 1.11433 9.6798 0.612173 9.39399 0.278517C9.10819 -0.0551395 8.6061 -0.0940342 8.27244 0.191771C8.24134 0.218431 8.21229 0.247414 8.18569 0.278517L0.231266 8.23295C-0.0770988 8.54309 -0.0770988 9.04415 0.231335 9.35443Z" fill="white"/>
</svg>
