<svg width="56" height="52" viewBox="0 0 56 52" fill="none" xmlns="http://www.w3.org/2000/svg">
<path d="M48.8053 11.4997C51.7426 15.7066 53.325 20.6354 53.3811 25.7535C53.3987 27.3541 53.2679 28.9409 52.9937 30.4957C52.5609 32.9513 51.7697 35.3278 50.6409 37.558L53.3367 36.5078C54.0613 36.2254 54.8766 36.5853 55.1575 37.3115C55.2538 37.5606 55.2748 37.8204 55.2315 38.0657C55.1487 38.5356 54.8301 38.9521 54.3541 39.1376L47.7476 41.7112C47.0741 41.9736 46.3124 41.6824 45.9848 41.0375L42.9798 35.123C42.6274 34.4289 42.9028 33.5792 43.5955 33.2251C44.2881 32.8709 45.1354 33.1464 45.4881 33.8404L47.4025 37.6085C48.8279 35.2069 49.7744 32.6184 50.2413 29.9712C51.2602 24.1954 50.0038 18.1386 46.4989 13.119C40.9209 5.13021 30.9129 1.64384 21.5953 4.44368C20.8505 4.66743 20.0665 4.24373 19.8441 3.49749C19.6214 2.75108 20.0448 1.96472 20.7895 1.74097C31.2718 -1.40867 42.5307 2.51304 48.8053 11.4997V11.4997ZM8.5878 14.7075L10.1946 18.4131C10.5043 19.1275 11.3332 19.4542 12.046 19.1431C12.4959 18.9467 12.792 18.5434 12.8714 18.0927C12.9178 17.8293 12.8902 17.5497 12.7759 17.2862L10.1363 11.1989C9.84848 10.5351 9.10587 10.198 8.41789 10.4187L1.66768 12.5841C0.927214 12.8216 0.518337 13.6157 0.75481 14.3579C0.990936 15.0999 1.7828 15.5089 2.52316 15.2714L5.60785 14.2819C3.67524 17.9694 2.67603 22.0729 2.70238 26.2852C2.73471 31.4466 4.31737 36.417 7.27927 40.659C13.554 49.6455 24.8127 53.5673 35.295 50.4177C35.8224 50.2593 36.1886 49.8185 36.2783 49.3097C36.3153 49.1001 36.3054 48.8789 36.2404 48.6613C36.0179 47.9149 35.2338 47.4913 34.4892 47.7151C25.1716 50.5148 15.1635 47.0284 9.58554 39.0398C4.49615 31.7504 4.14453 22.3235 8.5878 14.7075V14.7075Z" fill="black"/>
</svg>
